# xmcd
#
# Track frame offsets:
#	150
#	13885
#	34530
#	48997
#	65460
#	85770
#	100757
#	116972
#	139477
#	163935
#	184145
#	202170
#	222422
#	235620
#
# Disc length: 3360
#
# Revision: 3
# Processed by: cddbd v1.5.1PL0 Copyright (c) Steve Scherf et al.
# Submitted via: tcd 2.0b
# Normalized: r2:DSETVAR1
#
DISCID=cd0d1e0e
DTITLE=Various Artist - Roadrunner Road Rage
DYEAR=1900
DGENRE=
TTITLE0=Fear Factory - Damaged
TTITLE1=Machine Head - Bulldozer
TTITLE2=Chimaira - Sp Lit
TTITLE3=Ill Niño - God Save Us
TTITLE4=Dry Kill Logic - Rot
TTITLE5=36 Crazyfists - Turns To Ashes
TTITLE6=Anyone - Whole World's Insane
TTITLE7=Glassjaw - Piano
TTITLE8=Sinch - The Silent Acquiescence Of Millions
TTITLE9=Spineshank - Asthmatic (Punctured Lung Mix)
TTITLE10=Deicide - In Torment In Hell
TTITLE11=Nailbomb - For Fuck's Sake Ft. Max Cavalera
TTITLE12=Misfits - Dead Kings Rise
TTITLE13=Killswitch Engage - Numbered Days
EXTD=
EXTT0=
EXTT1=
EXTT2=
EXTT3=
EXTT4=
EXTT5=
EXTT6=
EXTT7=
EXTT8=
EXTT9=
EXTT10=
EXTT11=
EXTT12=
EXTT13=
PLAYORDER=
